<svg width="512" height="512" viewBox="0 0 512 512" fill="none" xmlns="http://www.w3.org/2000/svg">
  <rect width="512" height="512" rx="100" fill="#0071e3"/>
  <path d="M256 128C212.654 128 176 164.654 176 208V224H160C143.431 224 130 237.431 130 254V368C130 384.569 143.431 398 160 398H352C368.569 398 382 384.569 382 368V254C382 237.431 368.569 224 352 224H336V208C336 164.654 299.346 128 256 128ZM304 224V208C304 181.49 282.51 160 256 160C229.49 160 208 181.49 208 208V224H304Z" fill="white"/>
  <circle cx="256" cy="310" r="22" fill="white"/>
</svg>
