<svg width="192" height="192" viewBox="0 0 192 192" fill="none" xmlns="http://www.w3.org/2000/svg">
  <rect width="192" height="192" rx="40" fill="#0071e3"/>
  <path d="M96 48C79.4315 48 66 61.4315 66 78V84H60C54.4772 84 50 88.4772 50 94V138C50 143.523 54.4772 148 60 148H132C137.523 148 142 143.523 142 138V94C142 88.4772 137.523 84 132 84H126V78C126 61.4315 112.569 48 96 48ZM114 84V78C114 67.5066 105.493 59 96 59C86.5066 59 78 67.5066 78 78V84H114Z" fill="white"/>
  <circle cx="96" cy="116" r="8" fill="white"/>
</svg>
